<?xml version="1.0" standalone="no"?>
<!DOCTYPE svg PUBLIC "-//W3C//DTD SVG 20010904//EN"
 "http://www.w3.org/TR/2001/REC-SVG-20010904/DTD/svg10.dtd">
<svg version="1.0" xmlns="http://www.w3.org/2000/svg"
 width="512.000000pt" height="512.000000pt" viewBox="0 0 512.000000 512.000000"
 preserveAspectRatio="xMidYMid meet">

<g transform="translate(0.000000,512.000000) scale(0.100000,-0.100000)"
fill="#000000" stroke="none">
<path d="M400 5110 c-178 -25 -316 -143 -376 -320 -18 -53 -19 -130 -19 -2230
0 -2100 1 -2177 19 -2230 49 -146 148 -247 294 -303 l57 -22 2185 0 2185 0 57
22 c146 56 245 157 294 303 18 53 19 130 19 2230 0 2100 -1 2177 -19 2230 -49
146 -148 247 -294 303 l-57 22 -2145 1 c-1180 1 -2170 -2 -2200 -6z m875 -565
c212 -45 385 -221 426 -433 24 -128 -7 -287 -81 -402 -65 -101 -195 -195 -320
-231 -25 -7 -85 -13 -135 -13 -427 -1 -687 459 -470 830 46 78 138 160 229
204 124 60 222 72 351 45z m2625 -1298 c169 -44 276 -104 383 -215 166 -170
254 -399 288 -757 9 -91 13 -355 13 -875 1 -703 0 -747 -17 -773 -10 -16 -32
-37 -50 -47 -30 -19 -53 -20 -365 -20 -363 0 -370 1 -411 58 -19 28 -20 46
-24 763 -3 496 -8 750 -15 784 -37 160 -101 268 -192 323 -71 42 -108 53 -206
59 -229 15 -390 -121 -467 -395 -21 -75 -21 -98 -27 -792 -5 -668 -6 -717 -23
-742 -38 -55 -56 -58 -404 -58 -356 0 -368 2 -405 71 -17 32 -18 92 -18 1267
0 1368 -4 1281 64 1323 29 18 56 19 361 19 310 0 332 -1 362 -20 52 -31 63
-64 63 -192 l1 -113 22 30 c74 102 202 206 309 253 141 61 271 82 488 78 147
-3 190 -8 270 -29z m-2379 -30 c19 -12 42 -38 52 -57 16 -33 17 -109 15 -1270
l-3 -1235 -24 -34 c-42 -59 -58 -61 -396 -61 -331 0 -347 2 -395 55 l-25 27
-3 1250 c-2 1239 -2 1251 18 1283 39 63 50 65 406 65 317 0 321 0 355 -23z"/>
</g>
</svg>
